<svg xmlns="http://www.w3.org/2000/svg" viewBox="0 0 960 540" role="img" aria-labelledby="title desc">
  <title id="title">CPS test tips for gamers</title>
  <desc id="desc">A gaming mouse with click speed sparks and target rings.</desc>
  <defs>
    <linearGradient id="bg" x1="0" y1="0" x2="1" y2="1">
      <stop offset="0" stop-color="#06151d"/>
      <stop offset=".5" stop-color="#10162f"/>
      <stop offset="1" stop-color="#2b0f22"/>
    </linearGradient>
    <linearGradient id="mouse" x1="0" y1="0" x2="1" y2="1">
      <stop offset="0" stop-color="#00d4ff"/>
      <stop offset=".5" stop-color="#9b59ff"/>
      <stop offset="1" stop-color="#ff2d78"/>
    </linearGradient>
  </defs>
  <rect width="960" height="540" fill="url(#bg)"/>
  <g fill="none" stroke="#00d4ff" opacity=".22">
    <circle cx="715" cy="170" r="54"/>
    <circle cx="715" cy="170" r="92"/>
    <path d="M715 78v184M623 170h184"/>
  </g>
  <path d="M360 98c-92 0-156 76-156 190v34c0 76 62 138 138 138h36c76 0 138-62 138-138v-34c0-114-64-190-156-190z" fill="#080d20" stroke="url(#mouse)" stroke-width="6"/>
  <path d="M360 102v142" stroke="#ffffff" stroke-width="5" opacity=".35"/>
  <path d="M292 130c-34 42-52 94-52 158" stroke="#00fff5" stroke-width="5" stroke-linecap="round"/>
  <path d="M428 130c34 42 52 94 52 158" stroke="#ff2d78" stroke-width="5" stroke-linecap="round"/>
  <rect x="330" y="242" width="60" height="92" rx="30" fill="url(#mouse)" opacity=".95"/>
  <text x="645" y="360" fill="#ffffff" font-family="Arial, sans-serif" font-size="48" font-weight="800">CPS</text>
  <text x="645" y="400" fill="#a0a8c0" font-family="Arial, sans-serif" font-size="24" font-weight="700">GAMER CONTROL</text>
  <g stroke-linecap="round" stroke-width="10">
    <path d="M592 122h88" stroke="#00fff5"/>
    <path d="M612 214h116" stroke="#9b59ff"/>
    <path d="M610 278h76" stroke="#ff2d78"/>
  </g>
</svg>
