<svg xmlns="http://www.w3.org/2000/svg" viewBox="0 0 960 540" role="img" aria-labelledby="title desc">
  <title id="title">Keyboard test guide</title>
  <desc id="desc">A keyboard checker layout with highlighted working keys.</desc>
  <defs>
    <linearGradient id="bg" x1="0" y1="0" x2="1" y2="1">
      <stop offset="0" stop-color="#061224"/>
      <stop offset=".56" stop-color="#12123a"/>
      <stop offset="1" stop-color="#1b2336"/>
    </linearGradient>
    <linearGradient id="ok" x1="0" y1="0" x2="1" y2="1">
      <stop offset="0" stop-color="#00ff88"/>
      <stop offset="1" stop-color="#00d4ff"/>
    </linearGradient>
  </defs>
  <rect width="960" height="540" fill="url(#bg)"/>
  <rect x="118" y="156" width="724" height="250" rx="28" fill="#070b1d" stroke="rgba(255,255,255,.16)" stroke-width="3"/>
  <g fill="#161b35" stroke="rgba(255,255,255,.14)" stroke-width="2">
    <rect x="160" y="198" width="62" height="46" rx="9"/>
    <rect x="236" y="198" width="62" height="46" rx="9"/>
    <rect x="312" y="198" width="62" height="46" rx="9"/>
    <rect x="388" y="198" width="62" height="46" rx="9"/>
    <rect x="464" y="198" width="62" height="46" rx="9"/>
    <rect x="540" y="198" width="62" height="46" rx="9"/>
    <rect x="616" y="198" width="62" height="46" rx="9"/>
    <rect x="692" y="198" width="62" height="46" rx="9"/>
    <rect x="184" y="268" width="62" height="46" rx="9"/>
    <rect x="260" y="268" width="62" height="46" rx="9"/>
    <rect x="336" y="268" width="62" height="46" rx="9"/>
    <rect x="412" y="268" width="62" height="46" rx="9"/>
    <rect x="488" y="268" width="62" height="46" rx="9"/>
    <rect x="564" y="268" width="62" height="46" rx="9"/>
    <rect x="640" y="268" width="62" height="46" rx="9"/>
    <rect x="248" y="338" width="464" height="46" rx="12"/>
  </g>
  <g fill="url(#ok)">
    <rect x="312" y="198" width="62" height="46" rx="9"/>
    <rect x="540" y="198" width="62" height="46" rx="9"/>
    <rect x="412" y="268" width="62" height="46" rx="9"/>
    <rect x="248" y="338" width="464" height="46" rx="12"/>
  </g>
  <text x="480" y="118" text-anchor="middle" fill="#ffffff" font-family="Arial, sans-serif" font-size="42" font-weight="800">KEYBOARD TEST</text>
  <text x="480" y="366" text-anchor="middle" fill="#071224" font-family="Arial, sans-serif" font-size="20" font-weight="800">SPACEBAR OK</text>
</svg>
